<svg width="150" height="150" viewBox="0 0 150 150" fill="none" xmlns="http://www.w3.org/2000/svg">
<rect width="150" height="150" fill="#F6DC4A"/>
<g filter="url(#filter0_d_32_5)">
<path d="M56.1356 122.392C55.8796 122.392 55.6236 122.392 55.3676 122.392C55.1756 122.392 54.9516 122.36 54.6956 122.296C50.0236 121.336 46.4076 119.992 43.8476 118.264C41.3516 116.6 39.5916 114.552 38.5676 112.12C37.6076 109.688 37.1276 106.968 37.1276 103.96L37.3196 94.168C37.3196 91.736 36.9356 89.752 36.1676 88.216C35.4636 86.68 34.4716 85.56 33.1916 84.856C31.9116 84.088 30.4396 83.672 28.7756 83.608H28.3916C27.1756 83.608 26.1196 83.192 25.2236 82.36C24.3916 81.528 23.9756 80.472 23.9756 79.192C23.9756 77.912 24.3916 76.856 25.2236 76.024C26.1196 75.192 27.1756 74.776 28.3916 74.776H28.9676C30.5676 74.648 31.9756 74.232 33.1916 73.528C34.4716 72.76 35.4636 71.608 36.1676 70.072C36.9356 68.536 37.3196 66.584 37.3196 64.216L37.1276 54.424C37.1276 52.184 37.3836 50.104 37.8956 48.184C38.4716 46.2 39.3996 44.44 40.6796 42.904C41.9596 41.368 43.7196 40.024 45.9596 38.872C48.2636 37.72 51.1756 36.792 54.6956 36.088C56.4876 35.768 57.8316 36.088 58.7276 37.048C59.6236 37.944 60.0716 39.032 60.0716 40.312C60.0716 41.144 59.7516 41.912 59.1116 42.616C58.5356 43.32 57.7676 43.832 56.8076 44.152C54.2476 45.048 52.3276 46.04 51.0476 47.128C49.7676 48.152 48.9036 49.4 48.4556 50.872C48.0716 52.28 47.8796 54.008 47.8796 56.056L48.0716 66.04C48.0716 69.752 47.1436 72.664 45.2876 74.776C43.4316 76.824 40.9036 78.36 37.7036 79.384V79C40.9036 80.024 43.4316 81.592 45.2876 83.704C47.1436 85.752 48.0716 88.632 48.0716 92.344L47.8796 102.328C47.8796 104.312 48.0716 106.008 48.4556 107.416C48.9036 108.824 49.7676 110.04 51.0476 111.064C52.3276 112.152 54.2476 113.208 56.8076 114.232C58.9836 115.064 60.0716 116.408 60.0716 118.264C60.0716 119.352 59.6876 120.312 58.9196 121.144C58.1516 121.976 57.2236 122.392 56.1356 122.392ZM93.6371 122.296C92.4211 122.296 91.4931 121.752 90.8531 120.664C90.2131 119.64 89.8931 118.712 89.8931 117.88C89.8931 116.984 90.1811 116.184 90.7571 115.48C91.3971 114.84 92.1971 114.36 93.1571 114.04C95.7811 113.144 97.7011 112.152 98.9171 111.064C100.197 110.04 101.029 108.792 101.413 107.32C101.861 105.848 102.085 104.12 102.085 102.136L101.893 92.152C101.893 88.376 102.821 85.464 104.677 83.416C106.597 81.368 109.125 79.832 112.261 78.808V79.192C109.125 78.104 106.597 76.536 104.677 74.488C102.821 72.44 101.893 69.56 101.893 65.848L102.085 55.864C102.085 53.816 101.861 52.12 101.413 50.776C101.029 49.368 100.197 48.12 98.9171 47.032C97.6371 45.944 95.7171 44.92 93.1571 43.96C90.9811 43.128 89.8931 41.784 89.8931 39.928C89.8931 38.84 90.2771 37.88 91.0451 37.048C91.8131 36.216 92.7411 35.8 93.8291 35.8C94.0851 35.8 94.3091 35.8 94.5011 35.8C94.7571 35.8 95.0131 35.832 95.2691 35.896C99.9411 36.792 103.525 38.104 106.021 39.832C108.581 41.56 110.341 43.64 111.301 46.072C112.325 48.504 112.837 51.224 112.837 54.232L112.645 64.024C112.645 66.456 112.997 68.44 113.701 69.976C114.469 71.512 115.493 72.664 116.773 73.432C118.117 74.136 119.589 74.52 121.189 74.584H121.573C122.789 74.584 123.813 75 124.645 75.832C125.541 76.664 125.989 77.72 125.989 79C125.989 80.28 125.541 81.336 124.645 82.168C123.813 83 122.789 83.416 121.573 83.416H120.997C119.397 83.48 117.957 83.896 116.677 84.664C115.461 85.432 114.469 86.584 113.701 88.12C112.997 89.592 112.645 91.544 112.645 93.976L112.837 103.768C112.837 106.008 112.581 108.088 112.069 110.008C111.557 111.992 110.629 113.752 109.285 115.288C108.005 116.824 106.213 118.168 103.909 119.32C101.669 120.472 98.7891 121.4 95.2691 122.104C95.0131 122.168 94.7571 122.2 94.5011 122.2C94.3091 122.264 94.0211 122.296 93.6371 122.296Z" fill="black"/>
</g>
<defs>
<filter id="filter0_d_32_5" x="23.9756" y="35.608" width="106.014" height="90.784" filterUnits="userSpaceOnUse" color-interpolation-filters="sRGB">
<feFlood flood-opacity="0" result="BackgroundImageFix"/>
<feColorMatrix in="SourceAlpha" type="matrix" values="0 0 0 0 0 0 0 0 0 0 0 0 0 0 0 0 0 0 127 0" result="hardAlpha"/>
<feOffset dx="2" dy="2"/>
<feGaussianBlur stdDeviation="1"/>
<feComposite in2="hardAlpha" operator="out"/>
<feColorMatrix type="matrix" values="0 0 0 0 0 0 0 0 0 0 0 0 0 0 0 0 0 0 0.6 0"/>
<feBlend mode="normal" in2="BackgroundImageFix" result="effect1_dropShadow_32_5"/>
<feBlend mode="normal" in="SourceGraphic" in2="effect1_dropShadow_32_5" result="shape"/>
</filter>
</defs>
</svg>
