<svg width="152" height="52" viewBox="0 0 152 52" fill="none" xmlns="http://www.w3.org/2000/svg">
<g clip-path="url(#clip0_9_123)">
<path d="M152 0H0V52H152V0Z" fill="#F6DC4A"/>
<path d="M50.6667 0H0V52H50.6667V0Z" fill="black"/>
<g filter="url(#filter0_d_9_123)">
<path d="M18.9614 42.4292C18.8749 42.4292 18.7884 42.4292 18.7019 42.4292C18.6371 42.4292 18.5614 42.4181 18.475 42.3959C16.8969 42.0631 15.6755 41.5972 14.8107 40.9982C13.9676 40.4213 13.3732 39.7114 13.0273 38.8683C12.703 38.0252 12.5409 37.0822 12.5409 36.0395L12.6057 32.6449C12.6057 31.8018 12.476 31.114 12.2166 30.5815C11.9788 30.0491 11.6437 29.6608 11.2114 29.4167C10.779 29.1505 10.2818 29.0063 9.71976 28.9841H9.59005C9.17931 28.9841 8.82262 28.8399 8.51997 28.5515C8.23894 28.263 8.09842 27.897 8.09842 27.4532C8.09842 27.0095 8.23894 26.6434 8.51997 26.355C8.82262 26.0666 9.17931 25.9223 9.59005 25.9223H9.78461C10.3251 25.878 10.8006 25.7338 11.2114 25.4897C11.6437 25.2235 11.9788 24.8241 12.2166 24.2916C12.476 23.7591 12.6057 23.0825 12.6057 22.2615L12.5409 18.867C12.5409 18.0905 12.6273 17.3694 12.8003 16.7038C12.9948 16.016 13.3083 15.4059 13.7407 14.8734C14.173 14.3409 14.7675 13.875 15.5241 13.4756C16.3024 13.0763 17.286 12.7546 18.475 12.5105C19.0803 12.3996 19.5342 12.5105 19.8369 12.8433C20.1395 13.1539 20.2909 13.5311 20.2909 13.9748C20.2909 14.2633 20.1828 14.5295 19.9666 14.7735C19.772 15.0176 19.5126 15.1951 19.1883 15.306C18.3236 15.6166 17.6751 15.9605 17.2427 16.3377C16.8104 16.6927 16.5185 17.1253 16.3672 17.6356C16.2375 18.1237 16.1727 18.7228 16.1727 19.4327L16.2375 22.8939C16.2375 24.1807 15.9241 25.1902 15.2971 25.9223C14.6702 26.6323 13.8163 27.1648 12.7354 27.5198V27.3867C13.8163 27.7417 14.6702 28.2852 15.2971 29.0174C15.9241 29.7274 16.2375 30.7258 16.2375 32.0126L16.1727 35.4737C16.1727 36.1615 16.2375 36.7494 16.3672 37.2375C16.5185 37.7257 16.8104 38.1472 17.2427 38.5022C17.6751 38.8794 18.3236 39.2454 19.1883 39.6004C19.9233 39.8889 20.2909 40.3548 20.2909 40.9982C20.2909 41.3754 20.1611 41.7082 19.9017 41.9966C19.6423 42.285 19.3289 42.4292 18.9614 42.4292ZM31.6285 42.3959C31.2178 42.3959 30.9043 42.2074 30.6882 41.8302C30.472 41.4752 30.3639 41.1535 30.3639 40.8651C30.3639 40.5545 30.4612 40.2771 30.6557 40.0331C30.8719 39.8112 31.1421 39.6448 31.4664 39.5339C32.3527 39.2233 33.0013 38.8794 33.412 38.5022C33.8443 38.1472 34.1254 37.7146 34.2551 37.2043C34.4064 36.694 34.482 36.0949 34.482 35.4071L34.4172 31.946C34.4172 30.637 34.7306 29.6275 35.3576 28.9175C36.0061 28.2076 36.86 27.6751 37.9193 27.3201V27.4532C36.86 27.0761 36.0061 26.5325 35.3576 25.8225C34.7306 25.1125 34.4172 24.1141 34.4172 22.8273L34.482 19.3662C34.482 18.6562 34.4064 18.0683 34.2551 17.6023C34.1254 17.1142 33.8443 16.6816 33.412 16.3044C32.9796 15.9273 32.3311 15.5723 31.4664 15.2395C30.7314 14.951 30.3639 14.4851 30.3639 13.8417C30.3639 13.4645 30.4936 13.1317 30.753 12.8433C31.0124 12.5549 31.3259 12.4107 31.6934 12.4107C31.7799 12.4107 31.8555 12.4107 31.9204 12.4107C32.0068 12.4107 32.0933 12.4218 32.1798 12.4439C33.7579 12.7546 34.9684 13.2094 35.8115 13.8084C36.6762 14.4075 37.2707 15.1285 37.595 15.9716C37.9409 16.8147 38.1138 17.7577 38.1138 18.8004L38.049 22.195C38.049 23.0381 38.1679 23.7259 38.4057 24.2583C38.6651 24.7908 39.011 25.1902 39.4433 25.4564C39.8973 25.7005 40.3945 25.8336 40.935 25.8558H41.0647C41.4754 25.8558 41.8213 26 42.1023 26.2884C42.405 26.5769 42.5563 26.9429 42.5563 27.3867C42.5563 27.8304 42.405 28.1965 42.1023 28.4849C41.8213 28.7733 41.4754 28.9175 41.0647 28.9175H40.8701C40.3297 28.9397 39.8433 29.0839 39.4109 29.3502C39.0002 29.6164 38.6651 30.0158 38.4057 30.5483C38.1679 31.0586 38.049 31.7353 38.049 32.5783L38.1138 35.9729C38.1138 36.7494 38.0274 37.4705 37.8544 38.1361C37.6815 38.8239 37.368 39.434 36.914 39.9665C36.4817 40.499 35.8764 40.9649 35.0981 41.3643C34.3415 41.7636 33.3688 42.0853 32.1798 42.3294C32.0933 42.3516 32.0068 42.3627 31.9204 42.3627C31.8555 42.3849 31.7582 42.3959 31.6285 42.3959Z" fill="#F6DC4A"/>
</g>
<g filter="url(#filter1_d_9_123)">
<path d="M74.9938 18.1556C75.3076 18.3262 75.4829 18.582 75.52 18.9231C75.5754 19.2643 75.4923 19.577 75.2707 19.8612C75.1046 20.1076 74.8921 20.2402 74.6337 20.2592C74.375 20.2782 74.1166 20.2213 73.8582 20.0886C73.2488 19.7096 72.5932 19.4159 71.8916 19.2074C71.1897 18.98 70.4513 18.8663 69.6758 18.8663C68.5861 18.8663 67.589 19.0653 66.6844 19.4633C65.7795 19.8423 64.9949 20.3824 64.3301 21.0836C63.6654 21.7848 63.1482 22.6186 62.779 23.5851C62.4095 24.5516 62.2251 25.6224 62.2251 26.7973C62.2251 28.0481 62.419 29.1662 62.8067 30.1517C63.1945 31.1371 63.7208 31.9805 64.3855 32.6817C65.0685 33.3639 65.8535 33.885 66.7398 34.2451C67.6444 34.6052 68.6233 34.7852 69.6758 34.7852C70.4327 34.7852 71.162 34.6809 71.8639 34.4725C72.5655 34.2641 73.2302 33.9609 73.8582 33.5629C74.1166 33.4302 74.375 33.3829 74.6337 33.4207C74.8921 33.4586 75.1137 33.5913 75.2984 33.8187C75.52 34.1219 75.6031 34.4441 75.5477 34.7852C75.4923 35.1073 75.3167 35.3444 75.0215 35.4959C74.5597 35.7802 74.0335 36.0454 73.4427 36.2918C72.8516 36.5193 72.2331 36.6992 71.5869 36.8319C70.959 36.9647 70.322 37.0309 69.6758 37.0309C68.3463 37.0309 67.0904 36.7942 65.9089 36.3203C64.727 35.8464 63.6836 35.1641 62.779 34.2735C61.8741 33.3829 61.154 32.3121 60.6186 31.0613C60.1015 29.7916 59.8431 28.3703 59.8431 26.7973C59.8431 25.3191 60.0924 23.9641 60.5909 22.7323C61.0895 21.5005 61.7819 20.4298 62.6683 19.5201C63.5728 18.6105 64.6162 17.8998 65.7981 17.3881C66.9982 16.8764 68.2909 16.6206 69.6758 16.6206C70.6357 16.6206 71.5684 16.7533 72.4733 17.0186C73.3964 17.2839 74.2365 17.6629 74.9938 18.1556ZM90.2975 21.9079C90.6113 21.9079 90.87 22.0217 91.073 22.2491C91.2946 22.4575 91.4054 22.7229 91.4054 23.045V35.5812C91.4054 35.9032 91.2946 36.1781 91.073 36.4055C90.87 36.633 90.6113 36.7467 90.2975 36.7467C89.9651 36.7467 89.6972 36.633 89.4942 36.4055C89.2912 36.1781 89.1896 35.9032 89.1896 35.5812V32.8806L89.7158 32.8238C89.7158 33.2407 89.5773 33.6955 89.3003 34.1883C89.0234 34.6809 88.6447 35.1454 88.1647 35.5812C87.6848 35.9982 87.1122 36.3487 86.4475 36.633C85.8013 36.8982 85.0994 37.0309 84.3424 37.0309C83.0869 37.0309 81.9604 36.6992 80.9633 36.036C79.9662 35.3538 79.1721 34.4346 78.5813 33.2786C78.0088 32.1226 77.7227 30.8055 77.7227 29.3273C77.7227 27.8302 78.0088 26.5131 78.5813 25.376C79.1721 24.22 79.9662 23.3198 80.9633 22.6755C81.9604 22.0122 83.0683 21.6805 84.287 21.6805C85.0812 21.6805 85.8195 21.8132 86.5029 22.0785C87.1862 22.3438 87.777 22.7039 88.2755 23.1587C88.7927 23.6135 89.1896 24.1158 89.4665 24.6653C89.7621 25.2149 89.9097 25.7645 89.9097 26.3141L89.1896 26.1435V23.045C89.1896 22.7229 89.2912 22.4575 89.4942 22.2491C89.6972 22.0217 89.9651 21.9079 90.2975 21.9079ZM84.5917 34.9274C85.5149 34.9274 86.3276 34.6809 87.0291 34.1883C87.7493 33.6955 88.3032 33.0322 88.691 32.1984C89.0973 31.3456 89.3003 30.3886 89.3003 29.3273C89.3003 28.285 89.0973 27.3469 88.691 26.5131C88.3032 25.6603 87.7493 24.997 87.0291 24.5232C86.3276 24.0305 85.5149 23.7841 84.5917 23.7841C83.6868 23.7841 82.8745 24.021 82.1543 24.4948C81.4527 24.9686 80.8988 25.6224 80.4924 26.4562C80.0861 27.2901 79.8831 28.2471 79.8831 29.3273C79.8831 30.3886 80.077 31.3456 80.4647 32.1984C80.8711 33.0322 81.4251 33.6955 82.1266 34.1883C82.8468 34.6809 83.6686 34.9274 84.5917 34.9274ZM94.7085 34.4157C94.5423 34.1693 94.4687 33.9135 94.4869 33.6482C94.5055 33.3639 94.6626 33.1175 94.9578 32.9091C95.1425 32.7764 95.355 32.7195 95.5948 32.7385C95.8536 32.7575 96.0843 32.8806 96.2873 33.1081C96.8044 33.7334 97.3952 34.2357 98.0599 34.6147C98.7247 34.9749 99.5374 35.1548 100.497 35.1548C100.94 35.1357 101.384 35.0601 101.827 34.9274C102.27 34.7946 102.64 34.5673 102.935 34.2451C103.249 33.904 103.406 33.4586 103.406 32.9091C103.406 32.3784 103.249 31.9615 102.935 31.6583C102.621 31.3361 102.215 31.0803 101.716 30.8908C101.217 30.6823 100.673 30.5023 100.082 30.3507C99.4725 30.1801 98.8726 29.9906 98.2815 29.7821C97.6907 29.5547 97.1554 29.2799 96.675 28.9578C96.2136 28.6166 95.835 28.1997 95.5394 27.707C95.2625 27.1953 95.124 26.5794 95.124 25.8593C95.124 25.0065 95.3455 24.2674 95.7887 23.642C96.2505 23.0166 96.8598 22.5333 97.6168 22.1922C98.3923 21.8511 99.2327 21.6805 100.137 21.6805C100.654 21.6805 101.19 21.7468 101.744 21.8795C102.316 21.9932 102.87 22.2017 103.406 22.5049C103.941 22.7892 104.412 23.1871 104.818 23.6988C104.984 23.8883 105.077 24.1252 105.095 24.4095C105.114 24.6938 104.994 24.9496 104.735 25.177C104.532 25.3286 104.301 25.395 104.043 25.376C103.803 25.357 103.599 25.2623 103.433 25.0917C103.046 24.6179 102.556 24.2579 101.965 24.0115C101.393 23.7462 100.756 23.6135 100.054 23.6135C99.611 23.6135 99.1773 23.6799 98.7524 23.8125C98.3278 23.9452 97.9677 24.1726 97.6722 24.4948C97.3952 24.798 97.2567 25.2244 97.2567 25.774C97.2753 26.2857 97.4415 26.7026 97.7553 27.0247C98.0694 27.3469 98.494 27.6122 99.0294 27.8207C99.5651 28.0102 100.156 28.1997 100.802 28.3892C101.393 28.5408 101.956 28.7209 102.492 28.9293C103.046 29.1189 103.544 29.3747 103.987 29.6969C104.43 30.019 104.781 30.4359 105.04 30.9476C105.299 31.4403 105.428 32.0657 105.428 32.8238C105.428 33.6955 105.188 34.4536 104.707 35.0979C104.227 35.7233 103.59 36.2066 102.796 36.5477C102.021 36.8697 101.181 37.0309 100.276 37.0309C99.2604 37.0309 98.2538 36.8319 97.2567 36.434C96.2782 36.036 95.4286 35.3631 94.7085 34.4157ZM108.076 22.1354H114.585C114.881 22.1354 115.121 22.2396 115.306 22.4481C115.509 22.6565 115.61 22.9029 115.61 23.1871C115.61 23.4904 115.509 23.7462 115.306 23.9547C115.121 24.1442 114.881 24.2389 114.585 24.2389H108.076C107.799 24.2389 107.559 24.1347 107.356 23.9262C107.153 23.7178 107.052 23.4619 107.052 23.1587C107.052 22.8745 107.153 22.6376 107.356 22.4481C107.559 22.2396 107.799 22.1354 108.076 22.1354ZM110.985 18.2693C111.298 18.2693 111.557 18.383 111.76 18.6105C111.963 18.8189 112.065 19.0842 112.065 19.4064V33.1365C112.065 33.5913 112.129 33.9324 112.259 34.1598C112.388 34.3873 112.554 34.5483 112.757 34.6431C112.979 34.719 113.191 34.7568 113.394 34.7568C113.579 34.7568 113.736 34.7284 113.865 34.6715C114.013 34.5957 114.179 34.5578 114.364 34.5578C114.549 34.5578 114.715 34.6526 114.862 34.8421C115.029 35.0126 115.112 35.2401 115.112 35.5243C115.112 35.8654 114.918 36.1591 114.53 36.4055C114.142 36.633 113.708 36.7467 113.228 36.7467C112.97 36.7467 112.647 36.7276 112.259 36.6898C111.89 36.652 111.52 36.5286 111.151 36.3203C110.782 36.1119 110.468 35.7708 110.209 35.2969C109.969 34.8043 109.849 34.122 109.849 33.2502V19.4064C109.849 19.0842 109.96 18.8189 110.181 18.6105C110.403 18.383 110.671 18.2693 110.985 18.2693ZM119.8 36.7467C119.487 36.7467 119.219 36.633 118.997 36.4055C118.794 36.1781 118.692 35.9032 118.692 35.5812V23.1871C118.692 22.865 118.794 22.5996 118.997 22.3912C119.219 22.1638 119.487 22.0501 119.8 22.0501C120.133 22.0501 120.401 22.1638 120.604 22.3912C120.807 22.5996 120.908 22.865 120.908 23.1871V26.9395L120.576 26.3425C120.687 25.755 120.881 25.1865 121.158 24.6369C121.453 24.0684 121.822 23.5662 122.265 23.1303C122.709 22.6755 123.217 22.3249 123.789 22.0785C124.361 21.8132 124.989 21.6805 125.672 21.6805C126.079 21.6805 126.448 21.7848 126.78 21.9932C127.131 22.1827 127.306 22.4575 127.306 22.8176C127.306 23.2156 127.205 23.5093 127.002 23.6988C126.799 23.8883 126.568 23.9831 126.309 23.9831C126.069 23.9831 125.838 23.9357 125.617 23.841C125.395 23.7273 125.118 23.6704 124.786 23.6704C124.325 23.6704 123.863 23.8031 123.401 24.0684C122.958 24.3147 122.542 24.6748 122.155 25.1486C121.785 25.6224 121.481 26.1625 121.241 26.7689C121.019 27.3564 120.908 27.9913 120.908 28.6735V35.5812C120.908 35.9032 120.797 36.1781 120.576 36.4055C120.373 36.633 120.114 36.7467 119.8 36.7467ZM142.787 29.3557C142.787 30.8339 142.464 32.151 141.818 33.307C141.19 34.4631 140.331 35.3728 139.242 36.036C138.171 36.6992 136.961 37.0309 135.613 37.0309C134.265 37.0309 133.047 36.6992 131.957 36.036C130.868 35.3728 130 34.4631 129.354 33.307C128.726 32.151 128.412 30.8339 128.412 29.3557C128.412 27.8775 128.726 26.5605 129.354 25.4044C130 24.2484 130.868 23.3387 131.957 22.6755C133.047 22.0122 134.265 21.6805 135.613 21.6805C136.961 21.6805 138.171 22.0122 139.242 22.6755C140.331 23.3387 141.19 24.2484 141.818 25.4044C142.464 26.5605 142.787 27.8775 142.787 29.3557ZM140.571 29.3557C140.571 28.2566 140.35 27.2901 139.907 26.4562C139.482 25.6224 138.891 24.9686 138.134 24.4948C137.395 24.021 136.555 23.7841 135.613 23.7841C134.672 23.7841 133.822 24.021 133.065 24.4948C132.326 24.9686 131.736 25.6224 131.293 26.4562C130.849 27.2901 130.628 28.2566 130.628 29.3557C130.628 30.4359 130.849 31.393 131.293 32.2268C131.736 33.0607 132.326 33.724 133.065 34.2167C133.822 34.6906 134.672 34.9274 135.613 34.9274C136.555 34.9274 137.395 34.6906 138.134 34.2167C138.891 33.724 139.482 33.0607 139.907 32.2268C140.35 31.393 140.571 30.4359 140.571 29.3557Z" fill="black"/>
</g>
</g>
<defs>
<filter id="filter0_d_9_123" x="8.09842" y="12.4107" width="38.4579" height="34.0186" filterUnits="userSpaceOnUse" color-interpolation-filters="sRGB">
<feFlood flood-opacity="0" result="BackgroundImageFix"/>
<feColorMatrix in="SourceAlpha" type="matrix" values="0 0 0 0 0 0 0 0 0 0 0 0 0 0 0 0 0 0 127 0" result="hardAlpha"/>
<feOffset dx="2" dy="2"/>
<feGaussianBlur stdDeviation="1"/>
<feComposite in2="hardAlpha" operator="out"/>
<feColorMatrix type="matrix" values="0 0 0 0 0 0 0 0 0 0 0 0 0 0 0 0 0 0 0.6 0"/>
<feBlend mode="normal" in2="BackgroundImageFix" result="effect1_dropShadow_9_123"/>
<feBlend mode="normal" in="SourceGraphic" in2="effect1_dropShadow_9_123" result="shape"/>
</filter>
<filter id="filter1_d_9_123" x="55.8431" y="16.6206" width="90.944" height="28.4103" filterUnits="userSpaceOnUse" color-interpolation-filters="sRGB">
<feFlood flood-opacity="0" result="BackgroundImageFix"/>
<feColorMatrix in="SourceAlpha" type="matrix" values="0 0 0 0 0 0 0 0 0 0 0 0 0 0 0 0 0 0 127 0" result="hardAlpha"/>
<feOffset dy="4"/>
<feGaussianBlur stdDeviation="2"/>
<feComposite in2="hardAlpha" operator="out"/>
<feColorMatrix type="matrix" values="0 0 0 0 0 0 0 0 0 0 0 0 0 0 0 0 0 0 0.25 0"/>
<feBlend mode="normal" in2="BackgroundImageFix" result="effect1_dropShadow_9_123"/>
<feBlend mode="normal" in="SourceGraphic" in2="effect1_dropShadow_9_123" result="shape"/>
</filter>
<clipPath id="clip0_9_123">
<rect width="152" height="52" fill="white"/>
</clipPath>
</defs>
</svg>
